<svg width="16" height="16" viewBox="0 0 16 16" fill="none" xmlns="http://www.w3.org/2000/svg">
<path d="M1.024 1.98393C1.024 2.49593 1.472 2.94393 1.984 2.94393C2.496 2.94393 2.944 2.49593 2.944 1.98393C2.944 1.47193 2.496 1.02393 1.984 1.02393C1.472 1.02393 1.024 1.47193 1.024 1.98393Z" fill="white" stroke="white" stroke-miterlimit="4.1667" stroke-linecap="round" stroke-linejoin="round"/>
<path d="M7.04 1.98393C7.04 2.49593 7.488 2.94393 8 2.94393C8.512 2.94393 8.96 2.49593 8.96 1.98393C8.96 1.47193 8.512 1.02393 8 1.02393C7.488 1.02393 7.04 1.47193 7.04 1.98393Z" fill="white" stroke="white" stroke-miterlimit="4.1667" stroke-linecap="round" stroke-linejoin="round"/>
<path d="M12.992 1.98393C12.992 2.49593 13.44 2.94393 13.952 2.94393C14.464 2.94393 14.912 2.49593 14.912 1.98393C14.912 1.47193 14.464 1.02393 13.952 1.02393C13.44 1.02393 12.992 1.47193 12.992 1.98393Z" fill="white" stroke="white" stroke-miterlimit="4.1667" stroke-linecap="round" stroke-linejoin="round"/>
<path d="M1.024 8.00004C1.024 8.51204 1.472 8.96004 1.984 8.96004C2.496 8.96004 2.944 8.51204 2.944 8.00004C2.944 7.48804 2.496 7.04004 1.984 7.04004C1.472 7.04004 1.024 7.48804 1.024 8.00004Z" fill="white" stroke="white" stroke-miterlimit="4.1667" stroke-linecap="round" stroke-linejoin="round"/>
<path d="M7.04 8.00004C7.04 8.51204 7.488 8.96004 8 8.96004C8.512 8.96004 8.96 8.51204 8.96 8.00004C8.96 7.48804 8.512 7.04004 8 7.04004C7.488 7.04004 7.04 7.48804 7.04 8.00004Z" fill="white" stroke="white" stroke-miterlimit="4.1667" stroke-linecap="round" stroke-linejoin="round"/>
<path d="M12.992 8.00004C12.992 8.51204 13.44 8.96004 13.952 8.96004C14.464 8.96004 14.912 8.51204 14.912 8.00004C14.912 7.48804 14.464 7.04004 13.952 7.04004C13.44 7.04004 12.992 7.48804 12.992 8.00004Z" fill="white" stroke="white" stroke-miterlimit="4.1667" stroke-linecap="round" stroke-linejoin="round"/>
<path d="M1.024 14.0162C1.024 14.5282 1.472 14.9762 1.984 14.9762C2.496 14.9762 2.944 14.5282 2.944 14.0162C2.944 13.5042 2.496 13.0562 1.984 13.0562C1.472 13.0562 1.024 13.5042 1.024 14.0162Z" fill="white" stroke="white" stroke-miterlimit="4.1667" stroke-linecap="round" stroke-linejoin="round"/>
<path d="M7.04 14.0162C7.04 14.5282 7.488 14.9762 8 14.9762C8.512 14.9762 8.96 14.5282 8.96 14.0162C8.96 13.5042 8.512 13.0562 8 13.0562C7.488 13.0562 7.04 13.5042 7.04 14.0162Z" fill="white" stroke="white" stroke-miterlimit="4.1667" stroke-linecap="round" stroke-linejoin="round"/>
<path d="M12.992 14.0162C12.992 14.5282 13.44 14.9762 13.952 14.9762C14.464 14.9762 14.912 14.5282 14.912 14.0162C14.912 13.5042 14.464 13.0562 13.952 13.0562C13.44 12.9922 12.992 13.5042 12.992 14.0162Z" fill="white" stroke="white" stroke-miterlimit="4.1667" stroke-linecap="round" stroke-linejoin="round"/>
</svg>
