<svg width="18" height="18" viewBox="0 0 18 18" fill="none" xmlns="http://www.w3.org/2000/svg">
<path d="M6.75 6.75006C6.75008 6.33758 6.86354 5.93306 7.07799 5.58071C7.29244 5.22836 7.5996 4.94174 7.96597 4.75217C8.33227 4.56261 8.74372 4.47739 9.15517 4.50585C9.5667 4.5343 9.96247 4.67532 10.2992 4.9135C10.636 5.15167 10.9008 5.47784 11.0647 5.85635C11.2286 6.23486 11.2853 6.65115 11.2286 7.05971C11.1719 7.46827 11.0041 7.85343 10.7433 8.173C10.4825 8.49258 10.1389 8.7343 9.75 8.87178C9.53055 8.9494 9.34057 9.0931 9.20625 9.28315C9.07192 9.47328 8.99985 9.7003 9 9.93303V10.6875" stroke="white" stroke-linecap="round" stroke-linejoin="round"/>
<path d="M9 13.5C8.84467 13.5 8.71875 13.3741 8.71875 13.2188C8.71875 13.0634 8.84467 12.9375 9 12.9375" stroke="white"/>
<path d="M9 13.5C9.15533 13.5 9.28125 13.3741 9.28125 13.2188C9.28125 13.0634 9.15533 12.9375 9 12.9375" stroke="white"/>
<path d="M9 17.4375C13.6599 17.4375 17.4375 13.6599 17.4375 9C17.4375 4.3401 13.6599 0.5625 9 0.5625C4.3401 0.5625 0.5625 4.3401 0.5625 9C0.5625 13.6599 4.3401 17.4375 9 17.4375Z" stroke="white" stroke-miterlimit="10"/>
</svg>
