<svg width="91" height="14" viewBox="0 0 91 14" fill="none" xmlns="http://www.w3.org/2000/svg">
<path d="M0 13.3652V3.58594H1.13723V12.3365H5.45175V13.3652H0Z" fill="white"/>
<path d="M15.5868 13.3652L14.3715 10.2531H10.452L9.24961 13.3652H8.09937L11.9668 3.54688H12.9217L16.7675 13.3652H15.5912H15.5868ZM14.0156 9.23302L12.8783 6.2033C12.7307 5.82133 12.5788 5.34821 12.4226 4.79262C12.3227 5.22233 12.1838 5.69111 12.0015 6.2033L10.8513 9.23302H14.0156Z" fill="white"/>
<path d="M26.7248 3.58594V9.91448C26.7248 11.03 26.3862 11.9068 25.7134 12.5449C25.0406 13.1829 24.1161 13.4998 22.9398 13.4998C21.7635 13.4998 20.852 13.1786 20.2053 12.5362C19.5585 11.8938 19.2373 11.0126 19.2373 9.88844V3.58594H20.3745V9.96657C20.3745 10.7826 20.5959 11.4076 21.043 11.846C21.4901 12.2844 22.1455 12.5015 23.0093 12.5015C23.873 12.5015 24.472 12.2801 24.9148 11.8417C25.3618 11.4033 25.5832 10.7739 25.5832 9.95355V3.58594H26.7204H26.7248Z" fill="white"/>
<path d="M37.9104 13.3652H36.6126L31.2694 5.15722H31.2173C31.2867 6.12083 31.3258 7.00196 31.3258 7.80497V13.3652H30.2754V3.58594H31.5602L36.8904 11.7592H36.9425C36.9338 11.6377 36.9121 11.2514 36.8817 10.6003C36.8514 9.94487 36.8383 9.48043 36.847 9.19829V3.58594H37.9104V13.3652Z" fill="white"/>
<path d="M46.0229 4.4629C44.9464 4.4629 44.1 4.81883 43.4793 5.53502C42.8586 6.25122 42.5461 7.23219 42.5461 8.47359C42.5461 9.71499 42.8456 10.7437 43.4446 11.4382C44.0436 12.137 44.8987 12.4843 46.0099 12.4843C46.6914 12.4843 47.4727 12.3627 48.3451 12.1153V13.1137C47.668 13.3698 46.8303 13.4956 45.8363 13.4956C44.3952 13.4956 43.284 13.0572 42.5027 12.1848C41.7214 11.3123 41.3264 10.0709 41.3264 8.46057C41.3264 7.45356 41.5131 6.57242 41.8907 5.81282C42.2683 5.05322 42.8109 4.47159 43.5227 4.05923C44.2346 3.64688 45.0723 3.44287 46.0359 3.44287C47.0603 3.44287 47.9588 3.62952 48.7271 4.0028L48.2453 4.97943C47.503 4.63219 46.7651 4.45856 46.0229 4.45856V4.4629Z" fill="white"/>
<path d="M59.405 13.3652H58.2678V8.76423H53.1155V13.3652H51.9783V3.58594H53.1155V7.74854H58.2678V3.58594H59.405V13.3652Z" fill="white"/>
<path d="M69.5227 6.43378C69.5227 7.42343 69.1842 8.18737 68.5071 8.71692C67.8299 9.25081 66.8663 9.51559 65.6076 9.51559H64.4573V13.3613H63.3201V3.58203H65.855C68.2987 3.58203 69.5184 4.53262 69.5184 6.42944L69.5227 6.43378ZM64.4573 8.53896H65.4817C66.4887 8.53896 67.2179 8.37836 67.6693 8.05282C68.1207 7.72727 68.3465 7.2064 68.3465 6.48587C68.3465 5.83913 68.1338 5.35732 67.7127 5.04046C67.2873 4.7236 66.6276 4.56734 65.7334 4.56734H64.4616V8.53896H64.4573Z" fill="white"/>
<path d="M78.9505 10.3184L77.7351 7.20618H73.8156L72.6133 10.3184H71.463L75.3305 0.5H76.2854L80.1311 10.3184H78.9548H78.9505ZM77.3792 6.18614L76.242 3.15643C76.0944 2.77446 75.9425 2.30134 75.7862 1.74574C75.6864 2.17546 75.5475 2.64424 75.3652 3.15643L74.2149 6.18614H77.3792Z" fill="white"/>
<path d="M90.9652 8.38226C90.9652 9.99695 90.5268 11.2297 89.65 12.0848C88.7732 12.9399 87.5145 13.3652 85.8694 13.3652H83.1609V3.58594H86.1559C87.6751 3.58594 88.86 4.00697 89.7021 4.84904C90.5442 5.69111 90.9652 6.87175 90.9652 8.38226ZM89.7629 8.42133C89.7629 7.1452 89.4417 6.18594 88.8036 5.53919C88.1656 4.89245 87.2106 4.57124 85.9519 4.57124H84.2981V12.3843H85.6828C87.037 12.3843 88.057 12.05 88.7385 11.3859C89.42 10.7175 89.7629 9.73218 89.7629 8.42567V8.42133Z" fill="white"/>
</svg>
